<svg version="1.1" viewBox="0.0 0.0 500.0 300.0" fill="none" stroke="none" stroke-linecap="square" stroke-miterlimit="10" width="500" height="300" xmlns:xlink="http://www.w3.org/1999/xlink" xmlns="http://www.w3.org/2000/svg"><path fill="#f0f4f9" d="M0 0L500.0 0L500.0 300.0L0 300.0L0 0Z" fill-rule="nonzero"/><path stroke="#bec1c5" stroke-width="1.0" stroke-linecap="butt" d="M161.5 56.5L161.5 233.5" fill-rule="nonzero"/><path stroke="#bec1c5" stroke-width="1.0" stroke-linecap="butt" d="M242.5 56.5L242.5 233.5" fill-rule="nonzero"/><path stroke="#bec1c5" stroke-width="1.0" stroke-linecap="butt" d="M323.5 56.5L323.5 233.5" fill-rule="nonzero"/><path stroke="#bec1c5" stroke-width="1.0" stroke-linecap="butt" d="M404.5 56.5L404.5 233.5" fill-rule="nonzero"/><path stroke="#bec1c5" stroke-width="1.0" stroke-linecap="butt" d="M484.5 56.5L484.5 233.5" fill-rule="nonzero"/><path stroke="#272728" stroke-width="1.0" stroke-linecap="butt" d="M81.5 233.5L485.5 233.5" fill-rule="nonzero"/><path stroke="#bec1c5" stroke-width="1.0" stroke-linecap="butt" d="M81.5 188.5L485.5 188.5" fill-rule="nonzero"/><path stroke="#bec1c5" stroke-width="1.0" stroke-linecap="butt" d="M81.5 144.5L485.5 144.5" fill-rule="nonzero"/><path stroke="#bec1c5" stroke-width="1.0" stroke-linecap="butt" d="M81.5 100.5L485.5 100.5" fill-rule="nonzero"/><path stroke="#bec1c5" stroke-width="1.0" stroke-linecap="butt" d="M81.5 56.5L485.5 56.5" fill-rule="nonzero"/><clipPath id="id_0"><path d="M81.0 56.0L485.0 56.0L485.0 233.0L81.0 233.0L81.0 56.0Z" clip-rule="nonzero"/></clipPath><path stroke="#4285f4" stroke-width="2.0" stroke-linecap="butt" clip-path="url(#id_0)" d="M81.0 232.9115L82.617615 232.3805L84.63964 231.584L90.7057 229.1945L100.81582 226.451L121.03603 221.0525L282.7978 164.324L485.0 97.1525" fill-rule="nonzero"/><path fill="#000000" fill-opacity="0.0" clip-path="url(#id_0)" d="M84.0 232.9115C84.0 234.56836 82.65685 235.9115 81.0 235.9115C79.34315 235.9115 78.0 234.56836 78.0 232.9115C78.0 231.25464 79.34315 229.9115 81.0 229.9115C82.65685 229.9115 84.0 231.25464 84.0 232.9115Z" fill-rule="nonzero"/><path fill="#000000" fill-opacity="0.0" clip-path="url(#id_0)" d="M85.617615 232.3805C85.617615 234.03735 84.274475 235.3805 82.617615 235.3805C80.96076 235.3805 79.617615 234.03735 79.617615 232.3805C79.617615 230.72365 80.96076 229.3805 82.617615 229.3805C84.274475 229.3805 85.617615 230.72365 85.617615 232.3805Z" fill-rule="nonzero"/><path fill="#000000" fill-opacity="0.0" clip-path="url(#id_0)" d="M87.63964 231.584C87.63964 233.24086 86.29649 234.584 84.63964 234.584C82.98279 234.584 81.63964 233.24086 81.63964 231.584C81.63964 229.92714 82.98279 228.584 84.63964 228.584C86.29649 228.584 87.63964 229.92714 87.63964 231.584Z" fill-rule="nonzero"/><path fill="#000000" fill-opacity="0.0" clip-path="url(#id_0)" d="M93.7057 229.1945C93.7057 230.85135 92.36256 232.1945 90.7057 232.1945C89.04885 232.1945 87.7057 230.85135 87.7057 229.1945C87.7057 227.53764 89.04885 226.1945 90.7057 226.1945C92.36256 226.1945 93.7057 227.53764 93.7057 229.1945Z" fill-rule="nonzero"/><path fill="#000000" fill-opacity="0.0" clip-path="url(#id_0)" d="M103.81582 226.451C103.81582 228.10785 102.47267 229.451 100.81582 229.451C99.15896 229.451 97.81582 228.10785 97.81582 226.451C97.81582 224.79414 99.15896 223.451 100.81582 223.451C102.47267 223.451 103.81582 224.79414 103.81582 226.451Z" fill-rule="nonzero"/><path fill="#000000" fill-opacity="0.0" clip-path="url(#id_0)" d="M124.03603 221.0525C124.03603 222.70935 122.692894 224.0525 121.03603 224.0525C119.37918 224.0525 118.03603 222.70935 118.03603 221.0525C118.03603 219.39565 119.37918 218.0525 121.03603 218.0525C122.692894 218.0525 124.03603 219.39565 124.03603 221.0525Z" fill-rule="nonzero"/><path fill="#000000" fill-opacity="0.0" clip-path="url(#id_0)" d="M285.7978 164.324C285.7978 165.98085 284.45465 167.324 282.7978 167.324C281.14093 167.324 279.7978 165.98085 279.7978 164.324C279.7978 162.66714 281.14093 161.324 282.7978 161.324C284.45465 161.324 285.7978 162.66714 285.7978 164.324Z" fill-rule="nonzero"/><path fill="#000000" fill-opacity="0.0" clip-path="url(#id_0)" d="M488.0 97.1525C488.0 98.80936 486.65686 100.1525 485.0 100.1525C483.34314 100.1525 482.0 98.80936 482.0 97.1525C482.0 95.49564 483.34314 94.1525 485.0 94.1525C486.65686 94.1525 488.0 95.49564 488.0 97.1525Z" fill-rule="nonzero"/><path fill="#000000" d="M216.875 282.0L216.875 273.40625L218.01562 273.40625L218.01562 280.98438L222.25 280.98438L222.25 282.0L216.875 282.0ZM223.79688 274.625L223.79688 273.40625L224.85938 273.40625L224.85938 274.625L223.79688 274.625ZM223.79688 282.0L223.79688 275.78125L224.85938 275.78125L224.85938 282.0L223.79688 282.0ZM230.85938 279.71875L231.89062 279.85938Q231.71875 280.92188 231.01562 281.53125Q230.3125 282.14062 229.29688 282.14062Q228.01562 282.14062 227.23438 281.3125Q226.46875 280.46875 226.46875 278.90625Q226.46875 277.90625 226.79688 277.15625Q227.14062 276.39062 227.8125 276.01562Q228.5 275.64062 229.3125 275.64062Q230.3125 275.64062 230.95312 276.15625Q231.60938 276.65625 231.79688 277.60938L230.76562 277.76562Q230.625 277.14062 230.25 276.82812Q229.875 276.5 229.34375 276.5Q228.54688 276.5 228.04688 277.07812Q227.54688 277.64062 227.54688 278.875Q227.54688 280.14062 228.03125 280.70312Q228.51562 281.26562 229.28125 281.26562Q229.90625 281.26562 230.3125 280.89062Q230.73438 280.51562 230.85938 279.71875ZM232.23438 282.0L232.23438 281.14062L236.20312 276.59375Q235.51562 276.625 235.0 276.625L232.46875 276.625L232.46875 275.78125L237.5625 275.78125L237.5625 276.46875L234.1875 280.42188L233.53125 281.14062Q234.25 281.09375 234.85938 281.09375L237.75 281.09375L237.75 282.0L232.23438 282.0ZM238.76562 282.0L237.78125 282.0L237.78125 273.40625L238.84375 273.40625L238.84375 276.46875Q239.51562 275.64062 240.54688 275.64062Q241.125 275.64062 241.625 275.875Q242.14062 276.09375 242.46875 276.51562Q242.8125 276.9375 243.0 277.53125Q243.1875 278.125 243.1875 278.79688Q243.1875 280.39062 242.39062 281.26562Q241.59375 282.14062 240.5 282.14062Q239.39062 282.14062 238.76562 281.21875L238.76562 282.0ZM238.75 278.84375Q238.75 279.95312 239.0625 280.45312Q239.5625 281.26562 240.40625 281.26562Q241.09375 281.26562 241.59375 280.67188Q242.10938 280.07812 242.10938 278.875Q242.10938 277.65625 241.625 277.07812Q241.14062 276.5 240.45312 276.5Q239.76562 276.5 239.25 277.10938Q238.75 277.70312 238.75 278.84375ZM248.85938 281.23438Q248.26562 281.73438 247.71875 281.9375Q247.1875 282.14062 246.5625 282.14062Q245.53125 282.14062 244.98438 281.64062Q244.4375 281.14062 244.4375 280.35938Q244.4375 279.90625 244.64062 279.53125Q244.84375 279.14062 245.1875 278.92188Q245.53125 278.6875 245.95312 278.57812Q246.25 278.48438 246.89062 278.40625Q248.15625 278.26562 248.76562 278.04688Q248.76562 277.82812 248.76562 277.78125Q248.76562 277.125 248.46875 276.85938Q248.0625 276.51562 247.26562 276.51562Q246.53125 276.51562 246.17188 276.78125Q245.8125 277.03125 245.64062 277.6875L244.60938 277.54688Q244.75 276.89062 245.07812 276.48438Q245.40625 276.07812 246.01562 275.85938Q246.625 275.64062 247.42188 275.64062Q248.21875 275.64062 248.71875 275.82812Q249.21875 276.01562 249.45312 276.29688Q249.6875 276.57812 249.78125 277.01562Q249.82812 277.28125 249.82812 277.98438L249.82812 279.39062Q249.82812 280.85938 249.89062 281.25Q249.96875 281.64062 250.17188 282.0L249.0625 282.0Q248.90625 281.67188 248.85938 281.23438ZM248.76562 278.875Q248.1875 279.10938 247.04688 279.28125Q246.39062 279.375 246.125 279.5Q245.85938 279.60938 245.70312 279.82812Q245.5625 280.04688 245.5625 280.32812Q245.5625 280.75 245.875 281.03125Q246.20312 281.3125 246.8125 281.3125Q247.42188 281.3125 247.89062 281.04688Q248.375 280.78125 248.59375 280.3125Q248.76562 279.95312 248.76562 279.26562L248.76562 278.875ZM259.04688 280.0L260.14062 280.125Q259.89062 281.07812 259.1875 281.60938Q258.48438 282.14062 257.40625 282.14062Q256.04688 282.14062 255.23438 281.29688Q254.4375 280.45312 254.4375 278.9375Q254.4375 277.375 255.25 276.51562Q256.0625 275.64062 257.34375 275.64062Q258.59375 275.64062 259.375 276.48438Q260.17188 277.32812 260.17188 278.875Q260.17188 278.96875 260.17188 279.15625L255.53125 279.15625Q255.59375 280.1875 256.10938 280.73438Q256.625 281.26562 257.40625 281.26562Q257.98438 281.26562 258.39062 280.96875Q258.8125 280.65625 259.04688 280.0ZM255.59375 278.29688L259.0625 278.29688Q259.0 277.5 258.67188 277.10938Q258.15625 276.5 257.35938 276.5Q256.625 276.5 256.125 276.98438Q255.64062 277.46875 255.59375 278.29688ZM261.76562 282.0L261.76562 273.40625L262.82812 273.40625L262.82812 282.0L261.76562 282.0ZM269.04688 280.0L270.14062 280.125Q269.89062 281.07812 269.1875 281.60938Q268.48438 282.14062 267.40625 282.14062Q266.04688 282.14062 265.23438 281.29688Q264.4375 280.45312 264.4375 278.9375Q264.4375 277.375 265.25 276.51562Q266.0625 275.64062 267.34375 275.64062Q268.59375 275.64062 269.375 276.48438Q270.17188 277.32812 270.17188 278.875Q270.17188 278.96875 270.17188 279.15625L265.53125 279.15625Q265.59375 280.1875 266.10938 280.73438Q266.625 281.26562 267.40625 281.26562Q267.98438 281.26562 268.39062 280.96875Q268.8125 280.65625 269.04688 280.0ZM265.59375 278.29688L269.0625 278.29688Q269.0 277.5 268.67188 277.10938Q268.15625 276.5 267.35938 276.5Q266.625 276.5 266.125 276.98438Q265.64062 277.46875 265.59375 278.29688ZM271.79688 282.0L271.79688 275.78125L272.73438 275.78125L272.73438 276.65625Q273.03125 276.1875 273.51562 275.92188Q274.0 275.64062 274.625 275.64062Q275.3125 275.64062 275.75 275.92188Q276.20312 276.20312 276.375 276.71875Q277.125 275.64062 278.29688 275.64062Q279.23438 275.64062 279.71875 276.15625Q280.21875 276.65625 280.21875 277.73438L280.21875 282.0L279.17188 282.0L279.17188 278.07812Q279.17188 277.45312 279.0625 277.17188Q278.96875 276.89062 278.70312 276.71875Q278.4375 276.54688 278.0625 276.54688Q277.40625 276.54688 276.96875 276.98438Q276.54688 277.42188 276.54688 278.39062L276.54688 282.0L275.48438 282.0L275.48438 277.95312Q275.48438 277.25 275.21875 276.90625Q274.96875 276.54688 274.39062 276.54688Q273.9375 276.54688 273.5625 276.78125Q273.1875 277.01562 273.01562 277.46875Q272.84375 277.92188 272.84375 278.76562L272.84375 282.0L271.79688 282.0ZM287.04688 280.0L288.14062 280.125Q287.89062 281.07812 287.1875 281.60938Q286.48438 282.14062 285.40625 282.14062Q284.04688 282.14062 283.23438 281.29688Q282.4375 280.45312 282.4375 278.9375Q282.4375 277.375 283.25 276.51562Q284.0625 275.64062 285.34375 275.64062Q286.59375 275.64062 287.375 276.48438Q288.17188 277.32812 288.17188 278.875Q288.17188 278.96875 288.17188 279.15625L283.53125 279.15625Q283.59375 280.1875 284.10938 280.73438Q284.625 281.26562 285.40625 281.26562Q285.98438 281.26562 286.39062 280.96875Q286.8125 280.65625 287.04688 280.0ZM283.59375 278.29688L287.0625 278.29688Q287.0 277.5 286.67188 277.10938Q286.15625 276.5 285.35938 276.5Q284.625 276.5 284.125 276.98438Q283.64062 277.46875 283.59375 278.29688ZM289.79688 282.0L289.79688 275.78125L290.73438 275.78125L290.73438 276.65625Q291.42188 275.64062 292.71875 275.64062Q293.28125 275.64062 293.75 275.84375Q294.23438 276.04688 294.46875 276.375Q294.70312 276.70312 294.79688 277.14062Q294.84375 277.4375 294.84375 278.17188L294.84375 282.0L293.79688 282.0L293.79688 278.21875Q293.79688 277.5625 293.67188 277.25Q293.54688 276.9375 293.23438 276.75Q292.92188 276.54688 292.5 276.54688Q291.82812 276.54688 291.32812 276.98438Q290.84375 277.40625 290.84375 278.59375L290.84375 282.0L289.79688 282.0ZM299.09375 281.0625L299.25 281.98438Q298.79688 282.07812 298.45312 282.07812Q297.875 282.07812 297.5625 281.90625Q297.25 281.71875 297.10938 281.42188Q296.98438 281.125 296.98438 280.17188L296.98438 276.59375L296.21875 276.59375L296.21875 275.78125L296.98438 275.78125L296.98438 274.23438L298.03125 273.60938L298.03125 275.78125L299.09375 275.78125L299.09375 276.59375L298.03125 276.59375L298.03125 280.23438Q298.03125 280.6875 298.07812 280.8125Q298.14062 280.9375 298.26562 281.01562Q298.39062 281.09375 298.625 281.09375Q298.8125 281.09375 299.09375 281.0625ZM299.40625 278.89062Q299.40625 277.15625 300.35938 276.32812Q301.15625 275.64062 302.3125 275.64062Q303.59375 275.64062 304.40625 276.48438Q305.23438 277.3125 305.23438 278.79688Q305.23438 280.0 304.875 280.6875Q304.51562 281.375 303.8125 281.76562Q303.125 282.14062 302.3125 282.14062Q301.01562 282.14062 300.20312 281.3125Q299.40625 280.46875 299.40625 278.89062ZM300.48438 278.89062Q300.48438 280.07812 301.0 280.67188Q301.53125 281.26562 302.3125 281.26562Q303.10938 281.26562 303.625 280.67188Q304.14062 280.07812 304.14062 278.85938Q304.14062 277.70312 303.60938 277.10938Q303.09375 276.51562 302.3125 276.51562Q301.53125 276.51562 301.0 277.10938Q300.48438 277.6875 300.48438 278.89062ZM301.73438 275.0L302.51562 273.35938L303.90625 273.35938L302.60938 275.0L301.73438 275.0ZM307.9375 282.0L306.03125 275.78125L307.125 275.78125L308.10938 279.375L308.48438 280.70312Q308.51562 280.60938 308.8125 279.42188L309.79688 275.78125L310.875 275.78125L311.8125 279.39062L312.125 280.57812L312.48438 279.375L313.54688 275.78125L314.57812 275.78125L312.625 282.0L311.53125 282.0L310.54688 278.26562L310.29688 277.21875L309.04688 282.0L307.9375 282.0ZM320.8125 284.53125Q319.9375 283.42188 319.32812 281.95312Q318.73438 280.46875 318.73438 278.89062Q318.73438 277.5 319.17188 276.21875Q319.70312 274.73438 320.8125 273.26562L321.5625 273.26562Q320.85938 274.48438 320.625 275.0Q320.26562 275.8125 320.0625 276.6875Q319.8125 277.78125 319.8125 278.89062Q319.8125 281.71875 321.5625 284.53125L320.8125 284.53125ZM322.79688 282.0L322.79688 275.78125L323.73438 275.78125L323.73438 276.65625Q324.03125 276.1875 324.51562 275.92188Q325.0 275.64062 325.625 275.64062Q326.3125 275.64062 326.75 275.92188Q327.20312 276.20312 327.375 276.71875Q328.125 275.64062 329.29688 275.64062Q330.23438 275.64062 330.71875 276.15625Q331.21875 276.65625 331.21875 277.73438L331.21875 282.0L330.17188 282.0L330.17188 278.07812Q330.17188 277.45312 330.0625 277.17188Q329.96875 276.89062 329.70312 276.71875Q329.4375 276.54688 329.0625 276.54688Q328.40625 276.54688 327.96875 276.98438Q327.54688 277.42188 327.54688 278.39062L327.54688 282.0L326.48438 282.0L326.48438 277.95312Q326.48438 277.25 326.21875 276.90625Q325.96875 276.54688 325.39062 276.54688Q324.9375 276.54688 324.5625 276.78125Q324.1875 277.01562 324.01562 277.46875Q323.84375 277.92188 323.84375 278.76562L323.84375 282.0L322.79688 282.0ZM333.76562 282.0L333.76562 273.40625L334.82812 273.40625L334.82812 282.0L333.76562 282.0ZM336.79688 282.0L336.79688 275.78125L337.73438 275.78125L337.73438 276.65625Q338.42188 275.64062 339.71875 275.64062Q340.28125 275.64062 340.75 275.84375Q341.23438 276.04688 341.46875 276.375Q341.70312 276.70312 341.79688 277.14062Q341.84375 277.4375 341.84375 278.17188L341.84375 282.0L340.79688 282.0L340.79688 278.21875Q340.79688 277.5625 340.67188 277.25Q340.54688 276.9375 340.23438 276.75Q339.92188 276.54688 339.5 276.54688Q338.82812 276.54688 338.32812 276.98438Q337.84375 277.40625 337.84375 278.59375L337.84375 282.0L336.79688 282.0ZM344.09375 282.0L344.09375 280.79688L345.29688 280.79688L345.29688 282.0L344.09375 282.0ZM347.48438 284.53125L346.73438 284.53125Q348.48438 281.71875 348.48438 278.89062Q348.48438 277.79688 348.23438 276.70312Q348.03125 275.82812 347.67188 275.01562Q347.4375 274.5 346.73438 273.26562L347.48438 273.26562Q348.57812 274.73438 349.10938 276.21875Q349.5625 277.5 349.5625 278.89062Q349.5625 280.46875 348.95312 281.95312Q348.34375 283.42188 347.48438 284.53125Z" fill-rule="nonzero"/><path fill="#000000" d="M22.984375 204.4375L23.28125 203.3125Q24.671875 203.67188 25.40625 204.59375Q26.140625 205.51562 26.140625 206.85938Q26.140625 208.25 25.578125 209.125Q25.015625 210.0 23.953125 210.45312Q22.875 210.90625 21.640625 210.90625Q20.296875 210.90625 19.296875 210.39062Q18.296875 209.875 17.78125 208.9375Q17.265625 207.98438 17.265625 206.84375Q17.265625 205.5625 17.921875 204.6875Q18.578125 203.79688 19.765625 203.45312L20.03125 204.57812Q19.09375 204.875 18.671875 205.45312Q18.234375 206.01562 18.234375 206.875Q18.234375 207.85938 18.71875 208.53125Q19.1875 209.1875 19.984375 209.46875Q20.78125 209.73438 21.640625 209.73438Q22.734375 209.73438 23.546875 209.42188Q24.359375 209.09375 24.765625 208.42188Q25.171875 207.75 25.171875 206.95312Q25.171875 206.0 24.625 205.34375Q24.078125 204.67188 22.984375 204.4375ZM26.0 202.26562L25.140625 202.26562L20.59375 198.29688Q20.625 198.98438 20.625 199.5L20.625 202.03125L19.78125 202.03125L19.78125 196.9375L20.46875 196.9375L24.421875 200.3125L25.140625 200.96875Q25.09375 200.25 25.09375 199.64062L25.09375 196.75L26.0 196.75L26.0 202.26562ZM25.234375 192.64062Q25.734375 193.23438 25.9375 193.78125Q26.140625 194.3125 26.140625 194.9375Q26.140625 195.96875 25.640625 196.51562Q25.140625 197.0625 24.359375 197.0625Q23.90625 197.0625 23.53125 196.85938Q23.140625 196.65625 22.921875 196.3125Q22.6875 195.96875 22.578125 195.54688Q22.484375 195.25 22.40625 194.60938Q22.265625 193.34375 22.046875 192.73438Q21.828125 192.73438 21.78125 192.73438Q21.125 192.73438 20.859375 193.03125Q20.515625 193.4375 20.515625 194.23438Q20.515625 194.96875 20.78125 195.32812Q21.03125 195.6875 21.6875 195.85938L21.546875 196.89062Q20.890625 196.75 20.484375 196.42188Q20.078125 196.09375 19.859375 195.48438Q19.640625 194.875 19.640625 194.07812Q19.640625 193.28125 19.828125 192.78125Q20.015625 192.28125 20.296875 192.04688Q20.578125 191.8125 21.015625 191.71875Q21.28125 191.67188 21.984375 191.67188L23.390625 191.67188Q24.859375 191.67188 25.25 191.60938Q25.640625 191.53125 26.0 191.32812L26.0 192.4375Q25.671875 192.59375 25.234375 192.64062ZM22.875 192.73438Q23.109375 193.3125 23.28125 194.45312Q23.375 195.10938 23.5 195.375Q23.609375 195.64062 23.828125 195.79688Q24.046875 195.9375 24.328125 195.9375Q24.75 195.9375 25.03125 195.625Q25.3125 195.29688 25.3125 194.6875Q25.3125 194.07812 25.046875 193.60938Q24.78125 193.125 24.3125 192.90625Q23.953125 192.73438 23.265625 192.73438L22.875 192.73438ZM24.140625 190.125L23.984375 189.09375Q24.609375 189.0 24.9375 188.60938Q25.265625 188.20312 25.265625 187.46875Q25.265625 186.75 24.984375 186.40625Q24.6875 186.04688 24.28125 186.04688Q23.921875 186.04688 23.71875 186.35938Q23.578125 186.57812 23.359375 187.4375Q23.0625 188.59375 22.859375 189.04688Q22.640625 189.48438 22.265625 189.71875Q21.890625 189.95312 21.421875 189.95312Q21.015625 189.95312 20.65625 189.76562Q20.296875 189.57812 20.0625 189.25Q19.890625 189.0 19.765625 188.57812Q19.640625 188.15625 19.640625 187.65625Q19.640625 186.9375 19.859375 186.39062Q20.0625 185.82812 20.421875 185.5625Q20.78125 185.29688 21.375 185.20312L21.515625 186.23438Q21.046875 186.29688 20.78125 186.64062Q20.5 186.96875 20.5 187.59375Q20.5 188.3125 20.75 188.625Q20.984375 188.9375 21.3125 188.9375Q21.515625 188.9375 21.671875 188.8125Q21.84375 188.67188 21.953125 188.40625Q22.015625 188.25 22.21875 187.46875Q22.53125 186.34375 22.71875 185.90625Q22.90625 185.46875 23.265625 185.21875Q23.625 184.96875 24.171875 184.96875Q24.703125 184.96875 25.171875 185.28125Q25.625 185.57812 25.890625 186.15625Q26.140625 186.73438 26.140625 187.46875Q26.140625 188.6875 25.640625 189.32812Q25.125 189.95312 24.140625 190.125ZM24.140625 180.125L23.984375 179.09375Q24.609375 179.0 24.9375 178.60938Q25.265625 178.20312 25.265625 177.46875Q25.265625 176.75 24.984375 176.40625Q24.6875 176.04688 24.28125 176.04688Q23.921875 176.04688 23.71875 176.35938Q23.578125 176.57812 23.359375 177.4375Q23.0625 178.59375 22.859375 179.04688Q22.640625 179.48438 22.265625 179.71875Q21.890625 179.95312 21.421875 179.95312Q21.015625 179.95312 20.65625 179.76562Q20.296875 179.57812 20.0625 179.25Q19.890625 179.0 19.765625 178.57812Q19.640625 178.15625 19.640625 177.65625Q19.640625 176.9375 19.859375 176.39062Q20.0625 175.82812 20.421875 175.5625Q20.78125 175.29688 21.375 175.20312L21.515625 176.23438Q21.046875 176.29688 20.78125 176.64062Q20.5 176.96875 20.5 177.59375Q20.5 178.3125 20.75 178.625Q20.984375 178.9375 21.3125 178.9375Q21.515625 178.9375 21.671875 178.8125Q21.84375 178.67188 21.953125 178.40625Q22.015625 178.25 22.21875 177.46875Q22.53125 176.34375 22.71875 175.90625Q22.90625 175.46875 23.265625 175.21875Q23.625 174.96875 24.171875 174.96875Q24.703125 174.96875 25.171875 175.28125Q25.625 175.57812 25.890625 176.15625Q26.140625 176.73438 26.140625 177.46875Q26.140625 178.6875 25.640625 179.32812Q25.125 179.95312 24.140625 180.125ZM22.890625 173.09375Q21.15625 173.09375 20.328125 172.14062Q19.640625 171.34375 19.640625 170.1875Q19.640625 168.90625 20.484375 168.09375Q21.3125 167.26562 22.796875 167.26562Q24.0 167.26562 24.6875 167.625Q25.375 167.98438 25.765625 168.6875Q26.140625 169.375 26.140625 170.1875Q26.140625 171.48438 25.3125 172.29688Q24.46875 173.09375 22.890625 173.09375ZM22.890625 172.01562Q24.078125 172.01562 24.671875 171.5Q25.265625 170.96875 25.265625 170.1875Q25.265625 169.39062 24.671875 168.875Q24.078125 168.35938 22.859375 168.35938Q21.703125 168.35938 21.109375 168.89062Q20.515625 169.40625 20.515625 170.1875Q20.515625 170.96875 21.109375 171.5Q21.6875 172.01562 22.890625 172.01562ZM26.0 165.71875L19.78125 165.71875L19.78125 164.76562L20.71875 164.76562Q20.0625 164.40625 19.859375 164.10938Q19.640625 163.79688 19.640625 163.42188Q19.640625 162.89062 19.96875 162.34375L20.953125 162.70312Q20.71875 163.09375 20.71875 163.46875Q20.71875 163.82812 20.9375 164.10938Q21.140625 164.375 21.515625 164.48438Q22.078125 164.67188 22.734375 164.67188L26.0 164.67188L26.0 165.71875ZM25.0625 159.40625L25.984375 159.25Q26.078125 159.70312 26.078125 160.04688Q26.078125 160.625 25.90625 160.9375Q25.71875 161.25 25.421875 161.39062Q25.125 161.51562 24.171875 161.51562L20.59375 161.51562L20.59375 162.28125L19.78125 162.28125L19.78125 161.51562L18.234375 161.51562L17.609375 160.46875L19.78125 160.46875L19.78125 159.40625L20.59375 159.40625L20.59375 160.46875L24.234375 160.46875Q24.6875 160.46875 24.8125 160.42188Q24.9375 160.35938 25.015625 160.23438Q25.09375 160.10938 25.09375 159.875Q25.09375 159.6875 25.0625 159.40625ZM22.890625 159.09375Q21.15625 159.09375 20.328125 158.14062Q19.640625 157.34375 19.640625 156.1875Q19.640625 154.90625 20.484375 154.09375Q21.3125 153.26562 22.796875 153.26562Q24.0 153.26562 24.6875 153.625Q25.375 153.98438 25.765625 154.6875Q26.140625 155.375 26.140625 156.1875Q26.140625 157.48438 25.3125 158.29688Q24.46875 159.09375 22.890625 159.09375ZM22.890625 158.01562Q24.078125 158.01562 24.671875 157.5Q25.265625 156.96875 25.265625 156.1875Q25.265625 155.39062 24.671875 154.875Q24.078125 154.35938 22.859375 154.35938Q21.703125 154.35938 21.109375 154.89062Q20.515625 155.40625 20.515625 156.1875Q20.515625 156.96875 21.109375 157.5Q21.6875 158.01562 22.890625 158.01562ZM26.0 150.5625L19.78125 152.46875L19.78125 151.375L23.375 150.39062L24.703125 150.01562Q24.609375 149.98438 23.421875 149.6875L19.78125 148.70312L19.78125 147.625L23.390625 146.6875L24.578125 146.375L23.375 146.01562L19.78125 144.95312L19.78125 143.92188L26.0 145.875L26.0 146.96875L22.265625 147.95312L21.21875 148.20312L26.0 149.45312L26.0 150.5625ZM25.234375 138.64062Q25.734375 139.23438 25.9375 139.78125Q26.140625 140.3125 26.140625 140.9375Q26.140625 141.96875 25.640625 142.51562Q25.140625 143.0625 24.359375 143.0625Q23.90625 143.0625 23.53125 142.85938Q23.140625 142.65625 22.921875 142.3125Q22.6875 141.96875 22.578125 141.54688Q22.484375 141.25 22.40625 140.60938Q22.265625 139.34375 22.046875 138.73438Q21.828125 138.73438 21.78125 138.73438Q21.125 138.73438 20.859375 139.03125Q20.515625 139.4375 20.515625 140.23438Q20.515625 140.96875 20.78125 141.32812Q21.03125 141.6875 21.6875 141.85938L21.546875 142.89062Q20.890625 142.75 20.484375 142.42188Q20.078125 142.09375 19.859375 141.48438Q19.640625 140.875 19.640625 140.07812Q19.640625 139.28125 19.828125 138.78125Q20.015625 138.28125 20.296875 138.04688Q20.578125 137.8125 21.015625 137.71875Q21.28125 137.67188 21.984375 137.67188L23.390625 137.67188Q24.859375 137.67188 25.25 137.60938Q25.640625 137.53125 26.0 137.32812L26.0 138.4375Q25.671875 138.59375 25.234375 138.64062ZM22.875 138.73438Q23.109375 139.3125 23.28125 140.45312Q23.375 141.10938 23.5 141.375Q23.609375 141.64062 23.828125 141.79688Q24.046875 141.9375 24.328125 141.9375Q24.75 141.9375 25.03125 141.625Q25.3125 141.29688 25.3125 140.6875Q25.3125 140.07812 25.046875 139.60938Q24.78125 139.125 24.3125 138.90625Q23.953125 138.73438 23.265625 138.73438L22.875 138.73438ZM26.0 135.70312L19.78125 135.70312L19.78125 134.76562L20.65625 134.76562Q19.640625 134.07812 19.640625 132.78125Q19.640625 132.21875 19.84375 131.75Q20.046875 131.26562 20.375 131.03125Q20.703125 130.79688 21.140625 130.70312Q21.4375 130.65625 22.171875 130.65625L26.0 130.65625L26.0 131.70312L22.21875 131.70312Q21.5625 131.70312 21.25 131.82812Q20.9375 131.95312 20.75 132.26562Q20.546875 132.57812 20.546875 133.0Q20.546875 133.67188 20.984375 134.17188Q21.40625 134.65625 22.59375 134.65625L26.0 134.65625L26.0 135.70312ZM18.625 128.70312L17.40625 128.70312L17.40625 127.640625L18.625 127.640625L18.625 128.70312ZM26.0 128.70312L19.78125 128.70312L19.78125 127.640625L26.0 127.640625L26.0 128.70312ZM25.234375 121.640625Q25.734375 122.234375 25.9375 122.78125Q26.140625 123.3125 26.140625 123.9375Q26.140625 124.96875 25.640625 125.515625Q25.140625 126.0625 24.359375 126.0625Q23.90625 126.0625 23.53125 125.859375Q23.140625 125.65625 22.921875 125.3125Q22.6875 124.96875 22.578125 124.546875Q22.484375 124.25 22.40625 123.609375Q22.265625 122.34375 22.046875 121.734375Q21.828125 121.734375 21.78125 121.734375Q21.125 121.734375 20.859375 122.03125Q20.515625 122.4375 20.515625 123.234375Q20.515625 123.96875 20.78125 124.328125Q21.03125 124.6875 21.6875 124.859375L21.546875 125.890625Q20.890625 125.75 20.484375 125.421875Q20.078125 125.09375 19.859375 124.484375Q19.640625 123.875 19.640625 123.078125Q19.640625 122.28125 19.828125 121.78125Q20.015625 121.28125 20.296875 121.046875Q20.578125 120.8125 21.015625 120.71875Q21.28125 120.671875 21.984375 120.671875L23.390625 120.671875Q24.859375 120.671875 25.25 120.609375Q25.640625 120.53125 26.0 120.328125L26.0 121.4375Q25.671875 121.59375 25.234375 121.640625ZM22.875 121.734375Q23.109375 122.3125 23.28125 123.453125Q23.375 124.109375 23.5 124.375Q23.609375 124.640625 23.828125 124.796875Q24.046875 124.9375 24.328125 124.9375Q24.75 124.9375 25.03125 124.625Q25.3125 124.296875 25.3125 123.6875Q25.3125 123.078125 25.046875 122.609375Q24.78125 122.125 24.3125 121.90625Q23.953125 121.734375 23.265625 121.734375L22.875 121.734375ZM28.53125 113.6875Q27.421875 114.5625 25.953125 115.171875Q24.46875 115.765625 22.890625 115.765625Q21.5 115.765625 20.21875 115.328125Q18.734375 114.796875 17.265625 113.6875L17.265625 112.9375Q18.484375 113.640625 19.0 113.875Q19.8125 114.234375 20.6875 114.4375Q21.78125 114.6875 22.890625 114.6875Q25.71875 114.6875 28.53125 112.9375L28.53125 113.6875ZM26.0 111.703125L19.78125 111.703125L19.78125 110.765625L20.65625 110.765625Q20.1875 110.46875 19.921875 109.984375Q19.640625 109.5 19.640625 108.875Q19.640625 108.1875 19.921875 107.75Q20.203125 107.296875 20.71875 107.125Q19.640625 106.375 19.640625 105.203125Q19.640625 104.265625 20.15625 103.78125Q20.65625 103.28125 21.734375 103.28125L26.0 103.28125L26.0 104.328125L22.078125 104.328125Q21.453125 104.328125 21.171875 104.4375Q20.890625 104.53125 20.71875 104.796875Q20.546875 105.0625 20.546875 105.4375Q20.546875 106.09375 20.984375 106.53125Q21.421875 106.953125 22.390625 106.953125L26.0 106.953125L26.0 108.015625L21.953125 108.015625Q21.25 108.015625 20.90625 108.28125Q20.546875 108.53125 20.546875 109.109375Q20.546875 109.5625 20.78125 109.9375Q21.015625 110.3125 21.46875 110.484375Q21.921875 110.65625 22.765625 110.65625L26.0 110.65625L26.0 111.703125ZM24.140625 101.125L23.984375 100.09375Q24.609375 100.0 24.9375 99.609375Q25.265625 99.203125 25.265625 98.46875Q25.265625 97.75 24.984375 97.40625Q24.6875 97.046875 24.28125 97.046875Q23.921875 97.046875 23.71875 97.359375Q23.578125 97.578125 23.359375 98.4375Q23.0625 99.59375 22.859375 100.046875Q22.640625 100.484375 22.265625 100.71875Q21.890625 100.953125 21.421875 100.953125Q21.015625 100.953125 20.65625 100.765625Q20.296875 100.578125 20.0625 100.25Q19.890625 100.0 19.765625 99.578125Q19.640625 99.15625 19.640625 98.65625Q19.640625 97.9375 19.859375 97.390625Q20.0625 96.828125 20.421875 96.5625Q20.78125 96.296875 21.375 96.203125L21.515625 97.234375Q21.046875 97.296875 20.78125 97.640625Q20.5 97.96875 20.5 98.59375Q20.5 99.3125 20.75 99.625Q20.984375 99.9375 21.3125 99.9375Q21.515625 99.9375 21.671875 99.8125Q21.84375 99.671875 21.953125 99.40625Q22.015625 99.25 22.21875 98.46875Q22.53125 97.34375 22.71875 96.90625Q22.90625 96.46875 23.265625 96.21875Q23.625 95.96875 24.171875 95.96875Q24.703125 95.96875 25.171875 96.28125Q25.625 96.578125 25.890625 97.15625Q26.140625 97.734375 26.140625 98.46875Q26.140625 99.6875 25.640625 100.328125Q25.125 100.953125 24.140625 101.125ZM28.53125 93.015625L28.53125 93.765625Q25.71875 92.015625 22.890625 92.015625Q21.796875 92.015625 20.703125 92.265625Q19.828125 92.46875 19.015625 92.828125Q18.5 93.0625 17.265625 93.765625L17.265625 93.015625Q18.734375 91.921875 20.21875 91.390625Q21.5 90.9375 22.890625 90.9375Q24.46875 90.9375 25.953125 91.546875Q27.421875 92.15625 28.53125 93.015625Z" fill-rule="nonzero"/><path fill="#000000" d="M68.5 232.76562Q68.5 231.23438 68.8125 230.3125Q69.125 229.375 69.734375 228.875Q70.359375 228.375 71.296875 228.375Q71.984375 228.375 72.5 228.65625Q73.03125 228.9375 73.375 229.46875Q73.71875 229.98438 73.90625 230.73438Q74.09375 231.48438 74.09375 232.76562Q74.09375 234.28125 73.78125 235.20312Q73.484375 236.125 72.859375 236.64062Q72.25 237.14062 71.296875 237.14062Q70.0625 237.14062 69.34375 236.25Q68.5 235.1875 68.5 232.76562ZM69.578125 232.76562Q69.578125 234.875 70.078125 235.57812Q70.578125 236.28125 71.296875 236.28125Q72.03125 236.28125 72.515625 235.57812Q73.015625 234.875 73.015625 232.76562Q73.015625 230.64062 72.515625 229.95312Q72.03125 229.25 71.28125 229.25Q70.5625 229.25 70.125 229.85938Q69.578125 230.64062 69.578125 232.76562Z" fill-rule="nonzero"/><path fill="#000000" d="M54.5 190.5L55.609375 190.40625Q55.734375 191.21875 56.171875 191.625Q56.625 192.03125 57.265625 192.03125Q58.015625 192.03125 58.546875 191.45312Q59.078125 190.875 59.078125 189.9375Q59.078125 189.03125 58.5625 188.51562Q58.0625 187.98438 57.234375 187.98438Q56.734375 187.98438 56.3125 188.21875Q55.90625 188.45312 55.671875 188.8125L54.6875 188.6875L55.515625 184.28125L59.796875 184.28125L59.796875 185.28125L56.359375 185.28125L55.90625 187.59375Q56.671875 187.04688 57.515625 187.04688Q58.640625 187.04688 59.40625 187.82812Q60.1875 188.60938 60.1875 189.84375Q60.1875 191.0 59.515625 191.85938Q58.6875 192.89062 57.265625 192.89062Q56.09375 192.89062 55.34375 192.23438Q54.609375 191.57812 54.5 190.5ZM61.5 188.51562Q61.5 186.98438 61.8125 186.0625Q62.125 185.125 62.734375 184.625Q63.359375 184.125 64.296875 184.125Q64.984375 184.125 65.5 184.40625Q66.03125 184.6875 66.375 185.21875Q66.71875 185.73438 66.90625 186.48438Q67.09375 187.23438 67.09375 188.51562Q67.09375 190.03125 66.78125 190.95312Q66.484375 191.875 65.859375 192.39062Q65.25 192.89062 64.296875 192.89062Q63.0625 192.89062 62.34375 192.0Q61.5 190.9375 61.5 188.51562ZM62.578125 188.51562Q62.578125 190.625 63.078125 191.32812Q63.578125 192.03125 64.296875 192.03125Q65.03125 192.03125 65.515625 191.32812Q66.015625 190.625 66.015625 188.51562Q66.015625 186.39062 65.515625 185.70312Q65.03125 185.0 64.28125 185.0Q63.5625 185.0 63.125 185.60938Q62.578125 186.39062 62.578125 188.51562ZM68.5 188.51562Q68.5 186.98438 68.8125 186.0625Q69.125 185.125 69.734375 184.625Q70.359375 184.125 71.296875 184.125Q71.984375 184.125 72.5 184.40625Q73.03125 184.6875 73.375 185.21875Q73.71875 185.73438 73.90625 186.48438Q74.09375 187.23438 74.09375 188.51562Q74.09375 190.03125 73.78125 190.95312Q73.484375 191.875 72.859375 192.39062Q72.25 192.89062 71.296875 192.89062Q70.0625 192.89062 69.34375 192.0Q68.5 190.9375 68.5 188.51562ZM69.578125 188.51562Q69.578125 190.625 70.078125 191.32812Q70.578125 192.03125 71.296875 192.03125Q72.03125 192.03125 72.515625 191.32812Q73.015625 190.625 73.015625 188.51562Q73.015625 186.39062 72.515625 185.70312Q72.03125 185.0 71.28125 185.0Q70.5625 185.0 70.125 185.60938Q69.578125 186.39062 69.578125 188.51562Z" fill-rule="nonzero"/><path fill="#000000" d="M51.46875 148.5L50.421875 148.5L50.421875 141.78125Q50.03125 142.14062 49.40625 142.51562Q48.796875 142.875 48.3125 143.04688L48.3125 142.03125Q49.1875 141.60938 49.84375 141.03125Q50.515625 140.4375 50.796875 139.875L51.46875 139.875L51.46875 148.5ZM54.5 144.26562Q54.5 142.73438 54.8125 141.8125Q55.125 140.875 55.734375 140.375Q56.359375 139.875 57.296875 139.875Q57.984375 139.875 58.5 140.15625Q59.03125 140.4375 59.375 140.96875Q59.71875 141.48438 59.90625 142.23438Q60.09375 142.98438 60.09375 144.26562Q60.09375 145.78125 59.78125 146.70312Q59.484375 147.625 58.859375 148.14062Q58.25 148.64062 57.296875 148.64062Q56.0625 148.64062 55.34375 147.75Q54.5 146.6875 54.5 144.26562ZM55.578125 144.26562Q55.578125 146.375 56.078125 147.07812Q56.578125 147.78125 57.296875 147.78125Q58.03125 147.78125 58.515625 147.07812Q59.015625 146.375 59.015625 144.26562Q59.015625 142.14062 58.515625 141.45312Q58.03125 140.75 57.28125 140.75Q56.5625 140.75 56.125 141.35938Q55.578125 142.14062 55.578125 144.26562ZM61.5 144.26562Q61.5 142.73438 61.8125 141.8125Q62.125 140.875 62.734375 140.375Q63.359375 139.875 64.296875 139.875Q64.984375 139.875 65.5 140.15625Q66.03125 140.4375 66.375 140.96875Q66.71875 141.48438 66.90625 142.23438Q67.09375 142.98438 67.09375 144.26562Q67.09375 145.78125 66.78125 146.70312Q66.484375 147.625 65.859375 148.14062Q65.25 148.64062 64.296875 148.64062Q63.0625 148.64062 62.34375 147.75Q61.5 146.6875 61.5 144.26562ZM62.578125 144.26562Q62.578125 146.375 63.078125 147.07812Q63.578125 147.78125 64.296875 147.78125Q65.03125 147.78125 65.515625 147.07812Q66.015625 146.375 66.015625 144.26562Q66.015625 142.14062 65.515625 141.45312Q65.03125 140.75 64.28125 140.75Q63.5625 140.75 63.125 141.35938Q62.578125 142.14062 62.578125 144.26562ZM68.5 144.26562Q68.5 142.73438 68.8125 141.8125Q69.125 140.875 69.734375 140.375Q70.359375 139.875 71.296875 139.875Q71.984375 139.875 72.5 140.15625Q73.03125 140.4375 73.375 140.96875Q73.71875 141.48438 73.90625 142.23438Q74.09375 142.98438 74.09375 144.26562Q74.09375 145.78125 73.78125 146.70312Q73.484375 147.625 72.859375 148.14062Q72.25 148.64062 71.296875 148.64062Q70.0625 148.64062 69.34375 147.75Q68.5 146.6875 68.5 144.26562ZM69.578125 144.26562Q69.578125 146.375 70.078125 147.07812Q70.578125 147.78125 71.296875 147.78125Q72.03125 147.78125 72.515625 147.07812Q73.015625 146.375 73.015625 144.26562Q73.015625 142.14062 72.515625 141.45312Q72.03125 140.75 71.28125 140.75Q70.5625 140.75 70.125 141.35938Q69.578125 142.14062 69.578125 144.26562Z" fill-rule="nonzero"/><path fill="#000000" d="M51.46875 104.25L50.421875 104.25L50.421875 97.53125Q50.03125 97.890625 49.40625 98.265625Q48.796875 98.625 48.3125 98.796875L48.3125 97.78125Q49.1875 97.359375 49.84375 96.78125Q50.515625 96.1875 50.796875 95.625L51.46875 95.625L51.46875 104.25ZM54.5 102.0L55.609375 101.90625Q55.734375 102.71875 56.171875 103.125Q56.625 103.53125 57.265625 103.53125Q58.015625 103.53125 58.546875 102.953125Q59.078125 102.375 59.078125 101.4375Q59.078125 100.53125 58.5625 100.015625Q58.0625 99.484375 57.234375 99.484375Q56.734375 99.484375 56.3125 99.71875Q55.90625 99.953125 55.671875 100.3125L54.6875 100.1875L55.515625 95.78125L59.796875 95.78125L59.796875 96.78125L56.359375 96.78125L55.90625 99.09375Q56.671875 98.546875 57.515625 98.546875Q58.640625 98.546875 59.40625 99.328125Q60.1875 100.109375 60.1875 101.34375Q60.1875 102.5 59.515625 103.359375Q58.6875 104.390625 57.265625 104.390625Q56.09375 104.390625 55.34375 103.734375Q54.609375 103.078125 54.5 102.0ZM61.5 100.015625Q61.5 98.484375 61.8125 97.5625Q62.125 96.625 62.734375 96.125Q63.359375 95.625 64.296875 95.625Q64.984375 95.625 65.5 95.90625Q66.03125 96.1875 66.375 96.71875Q66.71875 97.234375 66.90625 97.984375Q67.09375 98.734375 67.09375 100.015625Q67.09375 101.53125 66.78125 102.453125Q66.484375 103.375 65.859375 103.890625Q65.25 104.390625 64.296875 104.390625Q63.0625 104.390625 62.34375 103.5Q61.5 102.4375 61.5 100.015625ZM62.578125 100.015625Q62.578125 102.125 63.078125 102.828125Q63.578125 103.53125 64.296875 103.53125Q65.03125 103.53125 65.515625 102.828125Q66.015625 102.125 66.015625 100.015625Q66.015625 97.890625 65.515625 97.203125Q65.03125 96.5 64.28125 96.5Q63.5625 96.5 63.125 97.109375Q62.578125 97.890625 62.578125 100.015625ZM68.5 100.015625Q68.5 98.484375 68.8125 97.5625Q69.125 96.625 69.734375 96.125Q70.359375 95.625 71.296875 95.625Q71.984375 95.625 72.5 95.90625Q73.03125 96.1875 73.375 96.71875Q73.71875 97.234375 73.90625 97.984375Q74.09375 98.734375 74.09375 100.015625Q74.09375 101.53125 73.78125 102.453125Q73.484375 103.375 72.859375 103.890625Q72.25 104.390625 71.296875 104.390625Q70.0625 104.390625 69.34375 103.5Q68.5 102.4375 68.5 100.015625ZM69.578125 100.015625Q69.578125 102.125 70.078125 102.828125Q70.578125 103.53125 71.296875 103.53125Q72.03125 103.53125 72.515625 102.828125Q73.015625 102.125 73.015625 100.015625Q73.015625 97.890625 72.515625 97.203125Q72.03125 96.5 71.28125 96.5Q70.5625 96.5 70.125 97.109375Q69.578125 97.890625 69.578125 100.015625Z" fill-rule="nonzero"/><path fill="#000000" d="M53.046875 58.984375L53.046875 60.0L47.359375 60.0Q47.359375 59.625 47.484375 59.265625Q47.703125 58.6875 48.171875 58.125Q48.65625 57.5625 49.5625 56.828125Q50.96875 55.671875 51.453125 55.0Q51.953125 54.328125 51.953125 53.734375Q51.953125 53.109375 51.5 52.6875Q51.046875 52.25 50.328125 52.25Q49.5625 52.25 49.109375 52.703125Q48.65625 53.15625 48.640625 53.96875L47.5625 53.859375Q47.671875 52.640625 48.390625 52.015625Q49.125 51.375 50.359375 51.375Q51.59375 51.375 52.3125 52.0625Q53.03125 52.75 53.03125 53.765625Q53.03125 54.28125 52.8125 54.78125Q52.609375 55.265625 52.109375 55.828125Q51.625 56.375 50.5 57.328125Q49.546875 58.125 49.265625 58.421875Q49.0 58.703125 48.828125 58.984375L53.046875 58.984375ZM54.5 55.765625Q54.5 54.234375 54.8125 53.3125Q55.125 52.375 55.734375 51.875Q56.359375 51.375 57.296875 51.375Q57.984375 51.375 58.5 51.65625Q59.03125 51.9375 59.375 52.46875Q59.71875 52.984375 59.90625 53.734375Q60.09375 54.484375 60.09375 55.765625Q60.09375 57.28125 59.78125 58.203125Q59.484375 59.125 58.859375 59.640625Q58.25 60.140625 57.296875 60.140625Q56.0625 60.140625 55.34375 59.25Q54.5 58.1875 54.5 55.765625ZM55.578125 55.765625Q55.578125 57.875 56.078125 58.578125Q56.578125 59.28125 57.296875 59.28125Q58.03125 59.28125 58.515625 58.578125Q59.015625 57.875 59.015625 55.765625Q59.015625 53.640625 58.515625 52.953125Q58.03125 52.25 57.28125 52.25Q56.5625 52.25 56.125 52.859375Q55.578125 53.640625 55.578125 55.765625ZM61.5 55.765625Q61.5 54.234375 61.8125 53.3125Q62.125 52.375 62.734375 51.875Q63.359375 51.375 64.296875 51.375Q64.984375 51.375 65.5 51.65625Q66.03125 51.9375 66.375 52.46875Q66.71875 52.984375 66.90625 53.734375Q67.09375 54.484375 67.09375 55.765625Q67.09375 57.28125 66.78125 58.203125Q66.484375 59.125 65.859375 59.640625Q65.25 60.140625 64.296875 60.140625Q63.0625 60.140625 62.34375 59.25Q61.5 58.1875 61.5 55.765625ZM62.578125 55.765625Q62.578125 57.875 63.078125 58.578125Q63.578125 59.28125 64.296875 59.28125Q65.03125 59.28125 65.515625 58.578125Q66.015625 57.875 66.015625 55.765625Q66.015625 53.640625 65.515625 52.953125Q65.03125 52.25 64.28125 52.25Q63.5625 52.25 63.125 52.859375Q62.578125 53.640625 62.578125 55.765625ZM68.5 55.765625Q68.5 54.234375 68.8125 53.3125Q69.125 52.375 69.734375 51.875Q70.359375 51.375 71.296875 51.375Q71.984375 51.375 72.5 51.65625Q73.03125 51.9375 73.375 52.46875Q73.71875 52.984375 73.90625 53.734375Q74.09375 54.484375 74.09375 55.765625Q74.09375 57.28125 73.78125 58.203125Q73.484375 59.125 72.859375 59.640625Q72.25 60.140625 71.296875 60.140625Q70.0625 60.140625 69.34375 59.25Q68.5 58.1875 68.5 55.765625ZM69.578125 55.765625Q69.578125 57.875 70.078125 58.578125Q70.578125 59.28125 71.296875 59.28125Q72.03125 59.28125 72.515625 58.578125Q73.015625 57.875 73.015625 55.765625Q73.015625 53.640625 72.515625 52.953125Q72.03125 52.25 71.28125 52.25Q70.5625 52.25 70.125 52.859375Q69.578125 53.640625 69.578125 55.765625Z" fill-rule="nonzero"/><path fill="#000000" d="M164.02335 248.98438L164.02335 250.0L158.33585 250.0Q158.33585 249.625 158.46085 249.26562Q158.6796 248.6875 159.14835 248.125Q159.63272 247.5625 160.53897 246.82812Q161.94522 245.67188 162.4296 245.0Q162.9296 244.32812 162.9296 243.73438Q162.9296 243.10938 162.47647 242.6875Q162.02335 242.25 161.3046 242.25Q160.53897 242.25 160.08585 242.70312Q159.63272 243.15625 159.6171 243.96875L158.53897 243.85938Q158.64835 242.64062 159.3671 242.01562Q160.10147 241.375 161.33585 241.375Q162.57022 241.375 163.28897 242.0625Q164.00772 242.75 164.00772 243.76562Q164.00772 244.28125 163.78897 244.78125Q163.58585 245.26562 163.08585 245.82812Q162.60147 246.375 161.47647 247.32812Q160.52335 248.125 160.2421 248.42188Q159.97647 248.70312 159.8046 248.98438L164.02335 248.98438Z" fill-rule="nonzero"/><path fill="#000000" d="M242.73236 250.0L242.73236 247.9375L239.01361 247.9375L239.01361 246.96875L242.93549 241.40625L243.79486 241.40625L243.79486 246.96875L244.95111 246.96875L244.95111 247.9375L243.79486 247.9375L243.79486 250.0L242.73236 250.0ZM242.73236 246.96875L242.73236 243.10938L240.04486 246.96875L242.73236 246.96875Z" fill-rule="nonzero"/><path fill="#000000" d="M325.707 243.51562L324.66013 243.59375Q324.5195 242.96875 324.2695 242.6875Q323.832 242.23438 323.207 242.23438Q322.707 242.23438 322.31638 242.51562Q321.832 242.89062 321.53513 243.59375Q321.25388 244.28125 321.23825 245.5625Q321.61325 244.98438 322.16013 244.70312Q322.72263 244.42188 323.332 244.42188Q324.37888 244.42188 325.11325 245.20312Q325.86325 245.98438 325.86325 247.20312Q325.86325 248.01562 325.50388 248.71875Q325.16013 249.40625 324.55075 249.78125Q323.94138 250.14062 323.17575 250.14062Q321.84763 250.14062 321.0195 249.17188Q320.19138 248.20312 320.19138 245.98438Q320.19138 243.48438 321.11325 242.35938Q321.91013 241.375 323.2695 241.375Q324.28513 241.375 324.92575 241.95312Q325.582 242.51562 325.707 243.51562ZM321.41013 247.21875Q321.41013 247.76562 321.62888 248.26562Q321.86325 248.75 322.2695 249.01562Q322.69138 249.28125 323.16013 249.28125Q323.81638 249.28125 324.30075 248.75Q324.78513 248.20312 324.78513 247.28125Q324.78513 246.39062 324.30075 245.875Q323.832 245.35938 323.11325 245.35938Q322.3945 245.35938 321.8945 245.875Q321.41013 246.39062 321.41013 247.21875Z" fill-rule="nonzero"/><path fill="#000000" d="M402.7441 245.34375Q402.08786 245.09375 401.75974 244.65625Q401.44724 244.20312 401.44724 243.59375Q401.44724 242.65625 402.1191 242.01562Q402.8066 241.375 403.916 241.375Q405.041 241.375 405.7285 242.03125Q406.416 242.6875 406.416 243.625Q406.416 244.21875 406.1035 244.65625Q405.791 245.09375 405.15036 245.34375Q405.94724 245.59375 406.3535 246.17188Q406.75974 246.75 406.75974 247.54688Q406.75974 248.64062 405.9785 249.39062Q405.21286 250.14062 403.9316 250.14062Q402.666 250.14062 401.88474 249.39062Q401.1035 248.64062 401.1035 247.51562Q401.1035 246.67188 401.52536 246.10938Q401.96286 245.54688 402.7441 245.34375ZM402.52536 243.54688Q402.52536 244.15625 402.916 244.54688Q403.32224 244.9375 403.94724 244.9375Q404.5566 244.9375 404.94724 244.5625Q405.33786 244.17188 405.33786 243.60938Q405.33786 243.03125 404.9316 242.64062Q404.52536 242.23438 403.9316 242.23438Q403.32224 242.23438 402.916 242.625Q402.52536 243.01562 402.52536 243.54688ZM402.19724 247.51562Q402.19724 247.96875 402.40036 248.39062Q402.6191 248.8125 403.041 249.04688Q403.46286 249.28125 403.94724 249.28125Q404.69724 249.28125 405.1816 248.79688Q405.6816 248.3125 405.6816 247.5625Q405.6816 246.79688 405.1816 246.29688Q404.6816 245.79688 403.916 245.79688Q403.166 245.79688 402.6816 246.29688Q402.19724 246.78125 402.19724 247.51562Z" fill-rule="nonzero"/><path fill="#000000" d="M482.46875 250.0L481.42188 250.0L481.42188 243.28125Q481.03125 243.64062 480.40625 244.01562Q479.79688 244.375 479.3125 244.54688L479.3125 243.53125Q480.1875 243.10938 480.84375 242.53125Q481.51562 241.9375 481.79688 241.375L482.46875 241.375L482.46875 250.0ZM485.5 245.76562Q485.5 244.23438 485.8125 243.3125Q486.125 242.375 486.73438 241.875Q487.35938 241.375 488.29688 241.375Q488.98438 241.375 489.5 241.65625Q490.03125 241.9375 490.375 242.46875Q490.71875 242.98438 490.90625 243.73438Q491.09375 244.48438 491.09375 245.76562Q491.09375 247.28125 490.78125 248.20312Q490.48438 249.125 489.85938 249.64062Q489.25 250.14062 488.29688 250.14062Q487.0625 250.14062 486.34375 249.25Q485.5 248.1875 485.5 245.76562ZM486.57812 245.76562Q486.57812 247.875 487.07812 248.57812Q487.57812 249.28125 488.29688 249.28125Q489.03125 249.28125 489.51562 248.57812Q490.01562 247.875 490.01562 245.76562Q490.01562 243.64062 489.51562 242.95312Q489.03125 242.25 488.28125 242.25Q487.5625 242.25 487.125 242.85938Q486.57812 243.64062 486.57812 245.76562Z" fill-rule="nonzero"/><path fill="#444746" d="M26.765625 28.984375L28.65625 29.453125Q28.0625 31.796875 26.515625 33.03125Q24.96875 34.25 22.71875 34.25Q20.40625 34.25 18.953125 33.3125Q17.515625 32.359375 16.75 30.578125Q16.0 28.78125 16.0 26.734375Q16.0 24.5 16.84375 22.84375Q17.703125 21.171875 19.28125 20.3125Q20.859375 19.4375 22.75 19.4375Q24.90625 19.4375 26.359375 20.53125Q27.828125 21.625 28.40625 23.609375L26.546875 24.046875Q26.046875 22.484375 25.09375 21.78125Q24.15625 21.0625 22.71875 21.0625Q21.0625 21.0625 19.953125 21.859375Q18.84375 22.640625 18.390625 23.984375Q17.953125 25.3125 17.953125 26.71875Q17.953125 28.546875 18.484375 29.921875Q19.015625 31.28125 20.140625 31.953125Q21.265625 32.625 22.5625 32.625Q24.15625 32.625 25.265625 31.703125Q26.375 30.78125 26.765625 28.984375ZM29.390625 34.0L29.390625 32.578125L36.0 25.0Q34.875 25.046875 34.015625 25.046875L29.78125 25.046875L29.78125 23.625L38.265625 23.625L38.265625 24.796875L32.640625 31.375L31.5625 32.578125Q32.734375 32.484375 33.78125 32.484375L38.578125 32.484375L38.578125 34.0L29.390625 34.0ZM46.09375 32.71875Q45.109375 33.546875 44.203125 33.890625Q43.296875 34.234375 42.265625 34.234375Q40.5625 34.234375 39.640625 33.40625Q38.71875 32.5625 38.71875 31.265625Q38.71875 30.5 39.0625 29.875Q39.421875 29.25 39.984375 28.875Q40.546875 28.484375 41.25 28.28125Q41.765625 28.15625 42.8125 28.015625Q44.9375 27.765625 45.9375 27.421875Q45.953125 27.0625 45.953125 26.953125Q45.953125 25.890625 45.453125 25.4375Q44.78125 24.84375 43.453125 24.84375Q42.203125 24.84375 41.609375 25.28125Q41.03125 25.71875 40.75 26.828125L39.03125 26.59375Q39.265625 25.484375 39.796875 24.8125Q40.328125 24.125 41.34375 23.765625Q42.359375 23.390625 43.703125 23.390625Q45.03125 23.390625 45.859375 23.703125Q46.6875 24.015625 47.078125 24.5Q47.46875 24.96875 47.625 25.6875Q47.71875 26.140625 47.71875 27.3125L47.71875 29.65625Q47.71875 32.109375 47.828125 32.765625Q47.9375 33.40625 48.28125 34.0L46.4375 34.0Q46.171875 33.453125 46.09375 32.71875ZM45.9375 28.796875Q44.984375 29.1875 43.0625 29.453125Q41.984375 29.609375 41.53125 29.8125Q41.09375 30.0 40.84375 30.375Q40.59375 30.75 40.59375 31.21875Q40.59375 31.921875 41.125 32.390625Q41.65625 32.859375 42.6875 32.859375Q43.703125 32.859375 44.484375 32.421875Q45.28125 31.96875 45.65625 31.203125Q45.9375 30.59375 45.9375 29.4375L45.9375 28.796875ZM49.609375 30.90625L51.359375 30.625Q51.5 31.671875 52.171875 32.234375Q52.84375 32.78125 54.046875 32.78125Q55.25 32.78125 55.828125 32.296875Q56.421875 31.796875 56.421875 31.140625Q56.421875 30.546875 55.90625 30.203125Q55.546875 29.96875 54.109375 29.609375Q52.171875 29.109375 51.421875 28.765625Q50.6875 28.40625 50.296875 27.78125Q49.90625 27.140625 49.90625 26.375Q49.90625 25.6875 50.21875 25.09375Q50.546875 24.5 51.09375 24.109375Q51.5 23.8125 52.203125 23.609375Q52.921875 23.390625 53.734375 23.390625Q54.953125 23.390625 55.875 23.75Q56.796875 24.09375 57.234375 24.703125Q57.671875 25.296875 57.84375 26.296875L56.125 26.53125Q56.0 25.734375 55.4375 25.296875Q54.875 24.84375 53.859375 24.84375Q52.640625 24.84375 52.125 25.25Q51.609375 25.640625 51.609375 26.171875Q51.609375 26.515625 51.828125 26.796875Q52.03125 27.078125 52.5 27.265625Q52.765625 27.359375 54.046875 27.703125Q55.921875 28.203125 56.65625 28.53125Q57.390625 28.84375 57.8125 29.453125Q58.234375 30.046875 58.234375 30.953125Q58.234375 31.828125 57.71875 32.609375Q57.203125 33.390625 56.234375 33.8125Q55.265625 34.234375 54.046875 34.234375Q52.03125 34.234375 50.96875 33.390625Q49.90625 32.546875 49.609375 30.90625ZM65.609375 30.90625L67.359375 30.625Q67.5 31.671875 68.171875 32.234375Q68.84375 32.78125 70.046875 32.78125Q71.25 32.78125 71.828125 32.296875Q72.421875 31.796875 72.421875 31.140625Q72.421875 30.546875 71.90625 30.203125Q71.546875 29.96875 70.109375 29.609375Q68.171875 29.109375 67.421875 28.765625Q66.6875 28.40625 66.296875 27.78125Q65.90625 27.140625 65.90625 26.375Q65.90625 25.6875 66.21875 25.09375Q66.546875 24.5 67.09375 24.109375Q67.5 23.8125 68.203125 23.609375Q68.921875 23.390625 69.734375 23.390625Q70.953125 23.390625 71.875 23.75Q72.796875 24.09375 73.234375 24.703125Q73.671875 25.296875 73.84375 26.296875L72.125 26.53125Q72.0 25.734375 71.4375 25.296875Q70.875 24.84375 69.859375 24.84375Q68.640625 24.84375 68.125 25.25Q67.609375 25.640625 67.609375 26.171875Q67.609375 26.515625 67.828125 26.796875Q68.03125 27.078125 68.5 27.265625Q68.765625 27.359375 70.046875 27.703125Q71.921875 28.203125 72.65625 28.53125Q73.390625 28.84375 73.8125 29.453125Q74.234375 30.046875 74.234375 30.953125Q74.234375 31.828125 73.71875 32.609375Q73.203125 33.390625 72.234375 33.8125Q71.265625 34.234375 70.046875 34.234375Q68.03125 34.234375 66.96875 33.390625Q65.90625 32.546875 65.609375 30.90625ZM75.671875 28.8125Q75.671875 25.9375 77.265625 24.546875Q78.609375 23.390625 80.53125 23.390625Q82.671875 23.390625 84.015625 24.796875Q85.375 26.203125 85.375 28.671875Q85.375 30.671875 84.78125 31.828125Q84.1875 32.96875 83.03125 33.609375Q81.890625 34.234375 80.53125 34.234375Q78.34375 34.234375 77.0 32.84375Q75.671875 31.4375 75.671875 28.8125ZM77.46875 28.8125Q77.46875 30.8125 78.328125 31.796875Q79.203125 32.78125 80.53125 32.78125Q81.84375 32.78125 82.703125 31.796875Q83.578125 30.796875 83.578125 28.75Q83.578125 26.828125 82.703125 25.84375Q81.828125 24.84375 80.53125 24.84375Q79.203125 24.84375 78.328125 25.84375Q77.46875 26.828125 77.46875 28.8125ZM87.296875 34.0L87.296875 23.625L88.875 23.625L88.875 25.203125Q89.484375 24.09375 90.0 23.75Q90.515625 23.390625 91.125 23.390625Q92.015625 23.390625 92.9375 23.953125L92.328125 25.59375Q91.6875 25.203125 91.046875 25.203125Q90.46875 25.203125 90.0 25.5625Q89.546875 25.90625 89.34375 26.515625Q89.0625 27.453125 89.0625 28.5625L89.0625 34.0L87.296875 34.0ZM98.15625 32.421875L98.40625 33.984375Q97.671875 34.140625 97.078125 34.140625Q96.125 34.140625 95.59375 33.84375Q95.078125 33.53125 94.859375 33.046875Q94.640625 32.546875 94.640625 30.96875L94.640625 25.0L93.359375 25.0L93.359375 23.625L94.640625 23.625L94.640625 21.0625L96.390625 20.0L96.390625 23.625L98.15625 23.625L98.15625 25.0L96.390625 25.0L96.390625 31.0625Q96.390625 31.8125 96.484375 32.03125Q96.578125 32.234375 96.78125 32.375Q97.0 32.5 97.390625 32.5Q97.671875 32.5 98.15625 32.421875ZM99.671875 28.8125Q99.671875 25.9375 101.265625 24.546875Q102.609375 23.390625 104.53125 23.390625Q106.671875 23.390625 108.015625 24.796875Q109.375 26.203125 109.375 28.671875Q109.375 30.671875 108.78125 31.828125Q108.1875 32.96875 107.03125 33.609375Q105.890625 34.234375 104.53125 34.234375Q102.34375 34.234375 101.0 32.84375Q99.671875 31.4375 99.671875 28.8125ZM101.46875 28.8125Q101.46875 30.8125 102.328125 31.796875Q103.203125 32.78125 104.53125 32.78125Q105.84375 32.78125 106.703125 31.796875Q107.578125 30.796875 107.578125 28.75Q107.578125 26.828125 106.703125 25.84375Q105.828125 24.84375 104.53125 24.84375Q103.203125 24.84375 102.328125 25.84375Q101.46875 26.828125 101.46875 28.8125ZM113.234375 34.0L110.0625 23.625L111.875 23.625L113.53125 29.609375L114.140625 31.84375Q114.1875 31.671875 114.671875 29.703125L116.328125 23.625L118.140625 23.625L119.6875 29.640625L120.203125 31.625L120.796875 29.625L122.578125 23.625L124.28125 23.625L121.046875 34.0L119.21875 34.0L117.5625 27.78125L117.171875 26.015625L115.0625 34.0L113.234375 34.0ZM133.09375 32.71875Q132.10938 33.546875 131.20312 33.890625Q130.29688 34.234375 129.26562 34.234375Q127.5625 34.234375 126.640625 33.40625Q125.71875 32.5625 125.71875 31.265625Q125.71875 30.5 126.0625 29.875Q126.421875 29.25 126.984375 28.875Q127.546875 28.484375 128.25 28.28125Q128.76562 28.15625 129.8125 28.015625Q131.9375 27.765625 132.9375 27.421875Q132.95312 27.0625 132.95312 26.953125Q132.95312 25.890625 132.45312 25.4375Q131.78125 24.84375 130.45312 24.84375Q129.20312 24.84375 128.60938 25.28125Q128.03125 25.71875 127.75 26.828125L126.03125 26.59375Q126.265625 25.484375 126.796875 24.8125Q127.328125 24.125 128.34375 23.765625Q129.35938 23.390625 130.70312 23.390625Q132.03125 23.390625 132.85938 23.703125Q133.6875 24.015625 134.07812 24.5Q134.46875 24.96875 134.625 25.6875Q134.71875 26.140625 134.71875 27.3125L134.71875 29.65625Q134.71875 32.109375 134.82812 32.765625Q134.9375 33.40625 135.28125 34.0L133.4375 34.0Q133.17188 33.453125 133.09375 32.71875ZM132.9375 28.796875Q131.98438 29.1875 130.0625 29.453125Q128.98438 29.609375 128.53125 29.8125Q128.09375 30.0 127.84375 30.375Q127.59375 30.75 127.59375 31.21875Q127.59375 31.921875 128.125 32.390625Q128.65625 32.859375 129.6875 32.859375Q130.70312 32.859375 131.48438 32.421875Q132.28125 31.96875 132.65625 31.203125Q132.9375 30.59375 132.9375 29.4375L132.9375 28.796875ZM137.3125 34.0L137.3125 23.625L138.90625 23.625L138.90625 25.109375Q140.04688 23.390625 142.20312 23.390625Q143.14062 23.390625 143.92188 23.734375Q144.71875 24.0625 145.10938 24.609375Q145.5 25.15625 145.65625 25.90625Q145.75 26.40625 145.75 27.625L145.75 34.0L143.98438 34.0L143.98438 27.6875Q143.98438 26.609375 143.78125 26.078125Q143.57812 25.546875 143.04688 25.234375Q142.53125 24.921875 141.82812 24.921875Q140.70312 24.921875 139.89062 25.640625Q139.07812 26.34375 139.07812 28.328125L139.07812 34.0L137.3125 34.0ZM147.32812 21.703125L147.32812 19.6875L149.09375 19.6875L149.09375 21.703125L147.32812 21.703125ZM147.32812 34.0L147.32812 23.625L149.09375 23.625L149.09375 34.0L147.32812 34.0ZM158.09375 32.71875Q157.10938 33.546875 156.20312 33.890625Q155.29688 34.234375 154.26562 34.234375Q152.5625 34.234375 151.64062 33.40625Q150.71875 32.5625 150.71875 31.265625Q150.71875 30.5 151.0625 29.875Q151.42188 29.25 151.98438 28.875Q152.54688 28.484375 153.25 28.28125Q153.76562 28.15625 154.8125 28.015625Q156.9375 27.765625 157.9375 27.421875Q157.95312 27.0625 157.95312 26.953125Q157.95312 25.890625 157.45312 25.4375Q156.78125 24.84375 155.45312 24.84375Q154.20312 24.84375 153.60938 25.28125Q153.03125 25.71875 152.75 26.828125L151.03125 26.59375Q151.26562 25.484375 151.79688 24.8125Q152.32812 24.125 153.34375 23.765625Q154.35938 23.390625 155.70312 23.390625Q157.03125 23.390625 157.85938 23.703125Q158.6875 24.015625 159.07812 24.5Q159.46875 24.96875 159.625 25.6875Q159.71875 26.140625 159.71875 27.3125L159.71875 29.65625Q159.71875 32.109375 159.82812 32.765625Q159.9375 33.40625 160.28125 34.0L158.4375 34.0Q158.17188 33.453125 158.09375 32.71875ZM157.9375 28.796875Q156.98438 29.1875 155.0625 29.453125Q153.98438 29.609375 153.53125 29.8125Q153.09375 30.0 152.84375 30.375Q152.59375 30.75 152.59375 31.21875Q152.59375 31.921875 153.125 32.390625Q153.65625 32.859375 154.6875 32.859375Q155.70312 32.859375 156.48438 32.421875Q157.28125 31.96875 157.65625 31.203125Q157.9375 30.59375 157.9375 29.4375L157.9375 28.796875ZM175.09375 32.71875Q174.10938 33.546875 173.20312 33.890625Q172.29688 34.234375 171.26562 34.234375Q169.5625 34.234375 168.64062 33.40625Q167.71875 32.5625 167.71875 31.265625Q167.71875 30.5 168.0625 29.875Q168.42188 29.25 168.98438 28.875Q169.54688 28.484375 170.25 28.28125Q170.76562 28.15625 171.8125 28.015625Q173.9375 27.765625 174.9375 27.421875Q174.95312 27.0625 174.95312 26.953125Q174.95312 25.890625 174.45312 25.4375Q173.78125 24.84375 172.45312 24.84375Q171.20312 24.84375 170.60938 25.28125Q170.03125 25.71875 169.75 26.828125L168.03125 26.59375Q168.26562 25.484375 168.79688 24.8125Q169.32812 24.125 170.34375 23.765625Q171.35938 23.390625 172.70312 23.390625Q174.03125 23.390625 174.85938 23.703125Q175.6875 24.015625 176.07812 24.5Q176.46875 24.96875 176.625 25.6875Q176.71875 26.140625 176.71875 27.3125L176.71875 29.65625Q176.71875 32.109375 176.82812 32.765625Q176.9375 33.40625 177.28125 34.0L175.4375 34.0Q175.17188 33.453125 175.09375 32.71875ZM174.9375 28.796875Q173.98438 29.1875 172.0625 29.453125Q170.98438 29.609375 170.53125 29.8125Q170.09375 30.0 169.84375 30.375Q169.59375 30.75 169.59375 31.21875Q169.59375 31.921875 170.125 32.390625Q170.65625 32.859375 171.6875 32.859375Q172.70312 32.859375 173.48438 32.421875Q174.28125 31.96875 174.65625 31.203125Q174.9375 30.59375 174.9375 29.4375L174.9375 28.796875ZM179.28125 34.0L179.28125 19.6875L181.03125 19.6875L181.03125 34.0L179.28125 34.0ZM183.0 34.859375L184.70312 35.109375Q184.8125 35.90625 185.29688 36.265625Q185.95312 36.75 187.09375 36.75Q188.3125 36.75 188.96875 36.265625Q189.64062 35.78125 189.875 34.90625Q190.01562 34.359375 190.0 32.640625Q188.84375 34.0 187.125 34.0Q184.98438 34.0 183.8125 32.453125Q182.64062 30.90625 182.64062 28.75Q182.64062 27.265625 183.17188 26.015625Q183.71875 24.765625 184.73438 24.078125Q185.76562 23.390625 187.14062 23.390625Q188.96875 23.390625 190.17188 24.875L190.17188 23.625L191.78125 23.625L191.78125 32.59375Q191.78125 35.015625 191.28125 36.015625Q190.79688 37.03125 189.71875 37.609375Q188.65625 38.203125 187.09375 38.203125Q185.25 38.203125 184.09375 37.375Q182.95312 36.546875 183.0 34.859375ZM184.45312 28.625Q184.45312 30.671875 185.26562 31.609375Q186.07812 32.546875 187.29688 32.546875Q188.5 32.546875 189.3125 31.609375Q190.14062 30.671875 190.14062 28.6875Q190.14062 26.78125 189.29688 25.8125Q188.45312 24.84375 187.26562 24.84375Q186.09375 24.84375 185.26562 25.796875Q184.45312 26.75 184.45312 28.625ZM193.67188 28.8125Q193.67188 25.9375 195.26562 24.546875Q196.60938 23.390625 198.53125 23.390625Q200.67188 23.390625 202.01562 24.796875Q203.375 26.203125 203.375 28.671875Q203.375 30.671875 202.78125 31.828125Q202.1875 32.96875 201.03125 33.609375Q199.89062 34.234375 198.53125 34.234375Q196.34375 34.234375 195.0 32.84375Q193.67188 31.4375 193.67188 28.8125ZM195.46875 28.8125Q195.46875 30.8125 196.32812 31.796875Q197.20312 32.78125 198.53125 32.78125Q199.84375 32.78125 200.70312 31.796875Q201.57812 30.796875 201.57812 28.75Q201.57812 26.828125 200.70312 25.84375Q199.82812 24.84375 198.53125 24.84375Q197.20312 24.84375 196.32812 25.84375Q195.46875 26.828125 195.46875 28.8125ZM205.29688 34.0L205.29688 23.625L206.875 23.625L206.875 25.203125Q207.48438 24.09375 208.0 23.75Q208.51562 23.390625 209.125 23.390625Q210.01562 23.390625 210.9375 23.953125L210.32812 25.59375Q209.6875 25.203125 209.04688 25.203125Q208.46875 25.203125 208.0 25.5625Q207.54688 25.90625 207.34375 26.515625Q207.0625 27.453125 207.0625 28.5625L207.0625 34.0L205.29688 34.0ZM212.23438 38.0L212.04688 36.34375Q212.625 36.5 213.04688 36.5Q213.64062 36.5 213.98438 36.296875Q214.34375 36.109375 214.5625 35.765625Q214.73438 35.5 215.10938 34.453125Q215.15625 34.296875 215.26562 34.015625L211.32812 23.625L213.21875 23.625L215.375 29.640625Q215.79688 30.78125 216.125 32.03125Q216.4375 30.828125 216.84375 29.671875L219.0625 23.625L220.82812 23.625L216.875 34.171875Q216.25 35.890625 215.89062 36.53125Q215.42188 37.40625 214.8125 37.796875Q214.21875 38.203125 213.375 38.203125Q212.85938 38.203125 212.23438 38.0ZM226.15625 32.421875L226.40625 33.984375Q225.67188 34.140625 225.07812 34.140625Q224.125 34.140625 223.59375 33.84375Q223.07812 33.53125 222.85938 33.046875Q222.64062 32.546875 222.64062 30.96875L222.64062 25.0L221.35938 25.0L221.35938 23.625L222.64062 23.625L222.64062 21.0625L224.39062 20.0L224.39062 23.625L226.15625 23.625L226.15625 25.0L224.39062 25.0L224.39062 31.0625Q224.39062 31.8125 224.48438 32.03125Q224.57812 32.234375 224.78125 32.375Q225.0 32.5 225.39062 32.5Q225.67188 32.5 226.15625 32.421875ZM228.3125 34.0L228.3125 23.625L229.89062 23.625L229.89062 25.078125Q230.375 24.328125 231.1875 23.859375Q232.0 23.390625 233.03125 23.390625Q234.1875 23.390625 234.92188 23.875Q235.65625 24.34375 235.96875 25.203125Q237.20312 23.390625 239.17188 23.390625Q240.71875 23.390625 241.54688 24.25Q242.375 25.109375 242.375 26.875L242.375 34.0L240.625 34.0L240.625 27.46875Q240.625 26.40625 240.45312 25.953125Q240.28125 25.484375 239.82812 25.203125Q239.39062 24.921875 238.78125 24.921875Q237.6875 24.921875 236.95312 25.65625Q236.23438 26.375 236.23438 27.96875L236.23438 34.0L234.48438 34.0L234.48438 27.265625Q234.48438 26.09375 234.04688 25.515625Q233.625 24.921875 232.64062 24.921875Q231.90625 24.921875 231.26562 25.3125Q230.64062 25.703125 230.35938 26.453125Q230.07812 27.203125 230.07812 28.625L230.07812 34.0L228.3125 34.0ZM251.42188 30.65625L253.23438 30.890625Q252.8125 32.46875 251.64062 33.359375Q250.48438 34.234375 248.67188 34.234375Q246.40625 34.234375 245.0625 32.84375Q243.73438 31.4375 243.73438 28.90625Q243.73438 26.28125 245.07812 24.84375Q246.42188 23.390625 248.57812 23.390625Q250.65625 23.390625 251.96875 24.8125Q253.29688 26.21875 253.29688 28.796875Q253.29688 28.953125 253.28125 29.265625L245.54688 29.265625Q245.64062 30.96875 246.51562 31.875Q247.39062 32.78125 248.6875 32.78125Q249.65625 32.78125 250.32812 32.28125Q251.01562 31.765625 251.42188 30.65625ZM245.64062 27.8125L251.4375 27.8125Q251.32812 26.515625 250.78125 25.859375Q249.9375 24.84375 248.59375 24.84375Q247.39062 24.84375 246.5625 25.65625Q245.73438 26.453125 245.64062 27.8125ZM255.3125 34.0L255.3125 23.625L256.89062 23.625L256.89062 25.078125Q257.375 24.328125 258.1875 23.859375Q259.0 23.390625 260.03125 23.390625Q261.1875 23.390625 261.92188 23.875Q262.65625 24.34375 262.96875 25.203125Q264.20312 23.390625 266.17188 23.390625Q267.71875 23.390625 268.54688 24.25Q269.375 25.109375 269.375 26.875L269.375 34.0L267.625 34.0L267.625 27.46875Q267.625 26.40625 267.45312 25.953125Q267.28125 25.484375 266.82812 25.203125Q266.39062 24.921875 265.78125 24.921875Q264.6875 24.921875 263.95312 25.65625Q263.23438 26.375 263.23438 27.96875L263.23438 34.0L261.48438 34.0L261.48438 27.265625Q261.48438 26.09375 261.04688 25.515625Q260.625 24.921875 259.64062 24.921875Q258.90625 24.921875 258.26562 25.3125Q257.64062 25.703125 257.35938 26.453125Q257.07812 27.203125 257.07812 28.625L257.07812 34.0L255.3125 34.0ZM288.39062 32.46875Q289.71875 33.375 290.82812 33.796875L290.26562 35.109375Q288.71875 34.5625 287.1875 33.359375Q285.59375 34.25 283.67188 34.25Q281.73438 34.25 280.14062 33.3125Q278.5625 32.375 277.70312 30.671875Q276.85938 28.96875 276.85938 26.84375Q276.85938 24.71875 277.71875 22.984375Q278.57812 21.25 280.15625 20.34375Q281.75 19.421875 283.71875 19.421875Q285.70312 19.421875 287.28125 20.375Q288.875 21.3125 289.70312 23.015625Q290.54688 24.703125 290.54688 26.828125Q290.54688 28.59375 290.01562 30.015625Q289.48438 31.421875 288.39062 32.46875ZM284.21875 30.046875Q285.85938 30.5 286.92188 31.40625Q288.59375 29.890625 288.59375 26.828125Q288.59375 25.09375 288.0 23.796875Q287.42188 22.5 286.28125 21.78125Q285.14062 21.0625 283.71875 21.0625Q281.60938 21.0625 280.20312 22.515625Q278.8125 23.953125 278.8125 26.84375Q278.8125 29.640625 280.1875 31.140625Q281.57812 32.625 283.71875 32.625Q284.73438 32.625 285.64062 32.234375Q284.75 31.671875 283.76562 31.421875L284.21875 30.046875ZM300.10938 34.0L300.10938 32.46875Q298.90625 34.234375 296.82812 34.234375Q295.90625 34.234375 295.10938 33.890625Q294.3125 33.53125 293.92188 33.0Q293.54688 32.46875 293.39062 31.6875Q293.28125 31.171875 293.28125 30.046875L293.28125 23.625L295.03125 23.625L295.03125 29.375Q295.03125 30.75 295.14062 31.234375Q295.3125 31.921875 295.84375 32.328125Q296.39062 32.71875 297.17188 32.71875Q297.96875 32.71875 298.65625 32.3125Q299.35938 31.90625 299.64062 31.21875Q299.9375 30.515625 299.9375 29.1875L299.9375 23.625L301.6875 23.625L301.6875 34.0L300.10938 34.0ZM303.32812 21.703125L303.32812 19.6875L305.09375 19.6875L305.09375 21.703125L303.32812 21.703125ZM303.32812 34.0L303.32812 23.625L305.09375 23.625L305.09375 34.0L303.32812 34.0ZM314.09375 30.203125L315.8125 30.421875Q315.53125 32.21875 314.35938 33.234375Q313.20312 34.234375 311.5 34.234375Q309.375 34.234375 308.07812 32.84375Q306.78125 31.453125 306.78125 28.859375Q306.78125 27.171875 307.32812 25.921875Q307.89062 24.65625 309.03125 24.03125Q310.17188 23.390625 311.51562 23.390625Q313.20312 23.390625 314.26562 24.25Q315.34375 25.109375 315.65625 26.671875L313.9375 26.9375Q313.70312 25.890625 313.07812 25.375Q312.45312 24.84375 311.57812 24.84375Q310.25 24.84375 309.42188 25.796875Q308.59375 26.75 308.59375 28.796875Q308.59375 30.890625 309.39062 31.84375Q310.1875 32.78125 311.48438 32.78125Q312.51562 32.78125 313.20312 32.15625Q313.90625 31.515625 314.09375 30.203125ZM317.32812 34.0L317.32812 19.6875L319.09375 19.6875L319.09375 27.84375L323.25 23.625L325.51562 23.625L321.5625 27.46875L325.92188 34.0L323.75 34.0L320.32812 28.703125L319.09375 29.890625L319.09375 34.0L317.32812 34.0ZM332.90625 29.40625L334.6875 29.25Q334.8125 30.3125 335.26562 31.0Q335.73438 31.6875 336.70312 32.125Q337.6875 32.546875 338.92188 32.546875Q340.0 32.546875 340.82812 32.234375Q341.65625 31.90625 342.0625 31.34375Q342.46875 30.78125 342.46875 30.109375Q342.46875 29.4375 342.07812 28.9375Q341.6875 28.4375 340.79688 28.09375Q340.21875 27.859375 338.23438 27.390625Q336.26562 26.921875 335.48438 26.5Q334.45312 25.96875 333.95312 25.171875Q333.45312 24.375 333.45312 23.390625Q333.45312 22.296875 334.0625 21.359375Q334.67188 20.421875 335.85938 19.9375Q337.04688 19.4375 338.48438 19.4375Q340.07812 19.4375 341.29688 19.953125Q342.51562 20.46875 343.15625 21.46875Q343.8125 22.453125 343.85938 23.71875L342.04688 23.859375Q341.90625 22.5 341.0625 21.8125Q340.21875 21.109375 338.5625 21.109375Q336.84375 21.109375 336.04688 21.75Q335.26562 22.375 335.26562 23.25Q335.26562 24.03125 335.82812 24.53125Q336.375 25.03125 338.6875 25.546875Q341.0 26.0625 341.85938 26.453125Q343.10938 27.03125 343.70312 27.921875Q344.29688 28.796875 344.29688 29.953125Q344.29688 31.09375 343.64062 32.109375Q342.98438 33.125 341.75 33.6875Q340.53125 34.25 339.0 34.25Q337.0625 34.25 335.75 33.6875Q334.4375 33.109375 333.6875 31.96875Q332.9375 30.828125 332.90625 29.40625ZM345.67188 28.8125Q345.67188 25.9375 347.26562 24.546875Q348.60938 23.390625 350.53125 23.390625Q352.67188 23.390625 354.01562 24.796875Q355.375 26.203125 355.375 28.671875Q355.375 30.671875 354.78125 31.828125Q354.1875 32.96875 353.03125 33.609375Q351.89062 34.234375 350.53125 34.234375Q348.34375 34.234375 347.0 32.84375Q345.67188 31.4375 345.67188 28.8125ZM347.46875 28.8125Q347.46875 30.8125 348.32812 31.796875Q349.20312 32.78125 350.53125 32.78125Q351.84375 32.78125 352.70312 31.796875Q353.57812 30.796875 353.57812 28.75Q353.57812 26.828125 352.70312 25.84375Q351.82812 24.84375 350.53125 24.84375Q349.20312 24.84375 348.32812 25.84375Q347.46875 26.828125 347.46875 28.8125ZM357.29688 34.0L357.29688 23.625L358.875 23.625L358.875 25.203125Q359.48438 24.09375 360.0 23.75Q360.51562 23.390625 361.125 23.390625Q362.01562 23.390625 362.9375 23.953125L362.32812 25.59375Q361.6875 25.203125 361.04688 25.203125Q360.46875 25.203125 360.0 25.5625Q359.54688 25.90625 359.34375 26.515625Q359.0625 27.453125 359.0625 28.5625L359.0625 34.0L357.29688 34.0ZM368.15625 32.421875L368.40625 33.984375Q367.67188 34.140625 367.07812 34.140625Q366.125 34.140625 365.59375 33.84375Q365.07812 33.53125 364.85938 33.046875Q364.64062 32.546875 364.64062 30.96875L364.64062 25.0L363.35938 25.0L363.35938 23.625L364.64062 23.625L364.64062 21.0625L366.39062 20.0L366.39062 23.625L368.15625 23.625L368.15625 25.0L366.39062 25.0L366.39062 31.0625Q366.39062 31.8125 366.48438 32.03125Q366.57812 32.234375 366.78125 32.375Q367.0 32.5 367.39062 32.5Q367.67188 32.5 368.15625 32.421875ZM378.23438 34.0L375.0625 23.625L376.875 23.625L378.53125 29.609375L379.14062 31.84375Q379.1875 31.671875 379.67188 29.703125L381.32812 23.625L383.14062 23.625L384.6875 29.640625L385.20312 31.625L385.79688 29.625L387.57812 23.625L389.28125 23.625L386.04688 34.0L384.21875 34.0L382.5625 27.78125L382.17188 26.015625L380.0625 34.0L378.23438 34.0ZM396.39062 34.0L396.39062 32.578125L403.0 25.0Q401.875 25.046875 401.01562 25.046875L396.78125 25.046875L396.78125 23.625L405.26562 23.625L405.26562 24.796875L399.64062 31.375L398.5625 32.578125Q399.73438 32.484375 400.78125 32.484375L405.57812 32.484375L405.57812 34.0L396.39062 34.0ZM413.09375 32.71875Q412.10938 33.546875 411.20312 33.890625Q410.29688 34.234375 409.26562 34.234375Q407.5625 34.234375 406.64062 33.40625Q405.71875 32.5625 405.71875 31.265625Q405.71875 30.5 406.0625 29.875Q406.42188 29.25 406.98438 28.875Q407.54688 28.484375 408.25 28.28125Q408.76562 28.15625 409.8125 28.015625Q411.9375 27.765625 412.9375 27.421875Q412.95312 27.0625 412.95312 26.953125Q412.95312 25.890625 412.45312 25.4375Q411.78125 24.84375 410.45312 24.84375Q409.20312 24.84375 408.60938 25.28125Q408.03125 25.71875 407.75 26.828125L406.03125 26.59375Q406.26562 25.484375 406.79688 24.8125Q407.32812 24.125 408.34375 23.765625Q409.35938 23.390625 410.70312 23.390625Q412.03125 23.390625 412.85938 23.703125Q413.6875 24.015625 414.07812 24.5Q414.46875 24.96875 414.625 25.6875Q414.71875 26.140625 414.71875 27.3125L414.71875 29.65625Q414.71875 32.109375 414.82812 32.765625Q414.9375 33.40625 415.28125 34.0L413.4375 34.0Q413.17188 33.453125 413.09375 32.71875ZM412.9375 28.796875Q411.98438 29.1875 410.0625 29.453125Q408.98438 29.609375 408.53125 29.8125Q408.09375 30.0 407.84375 30.375Q407.59375 30.75 407.59375 31.21875Q407.59375 31.921875 408.125 32.390625Q408.65625 32.859375 409.6875 32.859375Q410.70312 32.859375 411.48438 32.421875Q412.28125 31.96875 412.65625 31.203125Q412.9375 30.59375 412.9375 29.4375L412.9375 28.796875ZM417.28125 34.0L417.28125 19.6875L419.03125 19.6875L419.03125 34.0L417.28125 34.0ZM428.42188 30.65625L430.23438 30.890625Q429.8125 32.46875 428.64062 33.359375Q427.48438 34.234375 425.67188 34.234375Q423.40625 34.234375 422.0625 32.84375Q420.73438 31.4375 420.73438 28.90625Q420.73438 26.28125 422.07812 24.84375Q423.42188 23.390625 425.57812 23.390625Q427.65625 23.390625 428.96875 24.8125Q430.29688 26.21875 430.29688 28.796875Q430.29688 28.953125 430.28125 29.265625L422.54688 29.265625Q422.64062 30.96875 423.51562 31.875Q424.39062 32.78125 425.6875 32.78125Q426.65625 32.78125 427.32812 32.28125Q428.01562 31.765625 428.42188 30.65625ZM422.64062 27.8125L428.4375 27.8125Q428.32812 26.515625 427.78125 25.859375Q426.9375 24.84375 425.59375 24.84375Q424.39062 24.84375 423.5625 25.65625Q422.73438 26.453125 422.64062 27.8125ZM431.39062 34.0L431.39062 32.578125L438.0 25.0Q436.875 25.046875 436.01562 25.046875L431.78125 25.046875L431.78125 23.625L440.26562 23.625L440.26562 24.796875L434.64062 31.375L433.5625 32.578125Q434.73438 32.484375 435.78125 32.484375L440.57812 32.484375L440.57812 34.0L431.39062 34.0ZM434.89062 22.34375L434.89062 20.15625L437.07812 20.15625L437.07812 22.34375L434.89062 22.34375ZM441.3125 34.0L441.3125 23.625L442.90625 23.625L442.90625 25.109375Q444.04688 23.390625 446.20312 23.390625Q447.14062 23.390625 447.92188 23.734375Q448.71875 24.0625 449.10938 24.609375Q449.5 25.15625 449.65625 25.90625Q449.75 26.40625 449.75 27.625L449.75 34.0L447.98438 34.0L447.98438 27.6875Q447.98438 26.609375 447.78125 26.078125Q447.57812 25.546875 447.04688 25.234375Q446.53125 24.921875 445.82812 24.921875Q444.70312 24.921875 443.89062 25.640625Q443.07812 26.34375 443.07812 28.328125L443.07812 34.0L441.3125 34.0ZM450.67188 28.8125Q450.67188 25.9375 452.26562 24.546875Q453.60938 23.390625 455.53125 23.390625Q457.67188 23.390625 459.01562 24.796875Q460.375 26.203125 460.375 28.671875Q460.375 30.671875 459.78125 31.828125Q459.1875 32.96875 458.03125 33.609375Q456.89062 34.234375 455.53125 34.234375Q453.34375 34.234375 452.0 32.84375Q450.67188 31.4375 450.67188 28.8125ZM452.46875 28.8125Q452.46875 30.8125 453.32812 31.796875Q454.20312 32.78125 455.53125 32.78125Q456.84375 32.78125 457.70312 31.796875Q458.57812 30.796875 458.57812 28.75Q458.57812 26.828125 457.70312 25.84375Q456.82812 24.84375 455.53125 24.84375Q454.20312 24.84375 453.32812 25.84375Q452.46875 26.828125 452.46875 28.8125ZM461.60938 30.90625L463.35938 30.625Q463.5 31.671875 464.17188 32.234375Q464.84375 32.78125 466.04688 32.78125Q467.25 32.78125 467.82812 32.296875Q468.42188 31.796875 468.42188 31.140625Q468.42188 30.546875 467.90625 30.203125Q467.54688 29.96875 466.10938 29.609375Q464.17188 29.109375 463.42188 28.765625Q462.6875 28.40625 462.29688 27.78125Q461.90625 27.140625 461.90625 26.375Q461.90625 25.6875 462.21875 25.09375Q462.54688 24.5 463.09375 24.109375Q463.5 23.8125 464.20312 23.609375Q464.92188 23.390625 465.73438 23.390625Q466.95312 23.390625 467.875 23.75Q468.79688 24.09375 469.23438 24.703125Q469.67188 25.296875 469.84375 26.296875L468.125 26.53125Q468.0 25.734375 467.4375 25.296875Q466.875 24.84375 465.85938 24.84375Q464.64062 24.84375 464.125 25.25Q463.60938 25.640625 463.60938 26.171875Q463.60938 26.515625 463.82812 26.796875Q464.03125 27.078125 464.5 27.265625Q464.76562 27.359375 466.04688 27.703125Q467.92188 28.203125 468.65625 28.53125Q469.39062 28.84375 469.8125 29.453125Q470.23438 30.046875 470.23438 30.953125Q470.23438 31.828125 469.71875 32.609375Q469.20312 33.390625 468.23438 33.8125Q467.26562 34.234375 466.04688 34.234375Q464.03125 34.234375 462.96875 33.390625Q461.90625 32.546875 461.60938 30.90625ZM464.85938 22.34375L466.15625 19.609375L468.45312 19.609375L466.3125 22.34375L464.85938 22.34375ZM479.09375 30.203125L480.8125 30.421875Q480.53125 32.21875 479.35938 33.234375Q478.20312 34.234375 476.5 34.234375Q474.375 34.234375 473.07812 32.84375Q471.78125 31.453125 471.78125 28.859375Q471.78125 27.171875 472.32812 25.921875Q472.89062 24.65625 474.03125 24.03125Q475.17188 23.390625 476.51562 23.390625Q478.20312 23.390625 479.26562 24.25Q480.34375 25.109375 480.65625 26.671875L478.9375 26.9375Q478.70312 25.890625 478.07812 25.375Q477.45312 24.84375 476.57812 24.84375Q475.25 24.84375 474.42188 25.796875Q473.59375 26.75 473.59375 28.796875Q473.59375 30.890625 474.39062 31.84375Q475.1875 32.78125 476.48438 32.78125Q477.51562 32.78125 478.20312 32.15625Q478.90625 31.515625 479.09375 30.203125ZM482.32812 21.703125L482.32812 19.6875L484.09375 19.6875L484.09375 21.703125L482.32812 21.703125ZM482.32812 34.0L482.32812 23.625L484.09375 23.625L484.09375 34.0L482.32812 34.0Z" fill-rule="nonzero"/></svg>